<?xml version="1.0" standalone="no"?>
<!DOCTYPE svg PUBLIC "-//W3C//DTD SVG 20010904//EN"
 "http://www.w3.org/TR/2001/REC-SVG-20010904/DTD/svg10.dtd">
<svg version="1.0" xmlns="http://www.w3.org/2000/svg"
 width="90.000000pt" height="90.000000pt" viewBox="0 0 90.000000 90.000000"
 preserveAspectRatio="xMidYMid meet">
<metadata>
Created by potrace 1.11, written by Peter Selinger 2001-2013
</metadata>
<g transform="translate(0.000000,90.000000) scale(0.100000,-0.100000)"
fill="#000000" stroke="none">
<path d="M290 776 c-95 -25 -173 -90 -216 -181 -20 -41 -24 -66 -24 -141 0
-81 3 -97 31 -152 54 -109 152 -172 279 -180 95 -5 168 20 239 84 84 75 132
205 97 259 -26 40 -56 49 -99 32 -31 -14 -38 -23 -52 -71 -21 -71 -53 -110
-110 -131 -76 -29 -156 -3 -202 66 -55 83 -23 202 65 245 41 20 117 23 150 5
57 -30 122 6 124 69 2 80 -150 132 -282 96z"/>
<path d="M704 765 c-42 -18 -63 -46 -79 -105 -7 -28 -19 -58 -26 -66 -34 -41
-114 -58 -158 -35 -36 20 -82 22 -116 5 -91 -43 -93 -168 -4 -216 82 -44 160
4 183 113 9 41 44 77 86 90 32 10 48 9 89 -5 62 -20 84 -20 125 -1 135 64 38
279 -100 220z"/>
</g>
</svg>
